<svg xmlns="http://www.w3.org/2000/svg" xmlns:xlink="http://www.w3.org/1999/xlink" width="1240" height="669.59"><rect width="1240" height="669.59" rx="0" ry="0" class="a"/><svg height="629.59" viewBox="0 0 120 62.959" width="1200" x="20" xmlns="http://www.w3.org/2000/svg" xmlns:xlink="http://www.w3.org/1999/xlink" y="20"><style>@keyframes p{0%{transform:translateX(0)}3.4%{transform:translateX(-120px)}6%{transform:translateX(-480px)}6.1%{transform:translateX(-720px)}6.2%{transform:translateX(-840px)}6.3%{transform:translateX(-1080px)}20.1%{transform:translateX(-1200px)}22.7%{transform:translateX(-1320px)}25.2%{transform:translateX(-1440px)}27.3%{transform:translateX(-1560px)}32.4%{transform:translateX(-1680px)}32.6%{transform:translateX(-2040px)}39%{transform:translateX(-2160px)}41.4%{transform:translateX(-2280px)}43.8%{transform:translateX(-2400px)}45.8%{transform:translateX(-2520px)}48.2%{transform:translateX(-2640px)}50.1%{transform:translateX(-2760px)}52.8%{transform:translateX(-2880px)}55.5%{transform:translateX(-3000px)}58.3%{transform:translateX(-3120px)}58.4%{transform:translateX(-3360px)}58.5%{transform:translateX(-3480px)}68.2%{transform:translateX(-3600px)}69.9%{transform:translateX(-3720px)}71.3%{transform:translateX(-3840px)}72.6%{transform:translateX(-3960px)}82.5%{transform:translateX(-4080px)}85.7%{transform:translateX(-4200px)}87.1%{transform:translateX(-4320px)}88.7%{transform:translateX(-4440px)}90.6%{transform:translateX(-4560px)}99.3%{transform:translateX(-4920px)}99.7%{transform:translateX(-5160px)}to{transform:translateX(-5280px)}}.a{fill:#282d35}.c,.d{fill:#b9c0cb;white-space:pre}.d{fill:#a8cc8c}.e,.f{font-weight:700}.e{fill:#e88388;white-space:pre}.f{fill:#ffaf00}.f,.g,.h{white-space:pre}.g{fill:#dbab79;font-weight:700}.h{fill:#a8cc8c}.h,.i,.j{font-weight:700}.i{fill:#71bef2;white-space:pre}.j{fill:#d290e4}.j,.k,.l,.m{white-space:pre}.k{fill:#d787ff;font-weight:700}.l,.m{fill:#5f87af}.m{fill:#b9c0cb;font-weight:700}</style><g font-family="Monaco,Consolas,Menlo,'Bitstream Vera Sans Mono','Powerline Symbols',monospace" font-size="1.67"><defs><symbol id="1"><text y="1.67" class="c">$</text><text x="2.004" y="1.67" class="c">mamba</text><text x="8.016" y="1.67" class="c">run</text><text x="12.024" y="1.67" class="c">-n</text><text x="15.03" y="1.67" class="c">seed_cli</text><text x="24.048" y="1.67" class="c">python</text><text x="31.062" y="1.67" class="c">src/main.py</text></symbol><symbol id="2"><text y="1.67" class="d">╭─────────────────────────────────────────────────</text><text x="51.102" y="1.67" class="d">SeedCLI</text><text x="59.118" y="1.67" class="d">Architect</text><text x="69.138" y="1.67" class="d">──────────────────────────────────────────────────╮</text></symbol><symbol id="3"><text y="1.67" class="d">│</text><text x="21.042" y="1.67" class="e">________</text><text x="31.062" y="1.67" class="e">_______</text><text x="41.082" y="1.67" class="e">_______</text><text x="51.102" y="1.67" class="e">________</text><text x="69.138" y="1.67" class="e">________</text><text x="79.158" y="1.67" class="e">___</text><text x="89.178" y="1.67" class="e">___</text><text x="119.238" y="1.67" class="d">│</text></symbol><symbol id="4"><text y="1.67" class="d">│</text><text x="21.042" y="1.67" class="f">|\</text><text x="26.052" y="1.67" class="f">____\|\</text><text x="35.07" y="1.67" class="f">___</text><text x="39.078" y="1.67" class="f">\</text><text x="41.082" y="1.67" class="f">|\</text><text x="45.09" y="1.67" class="f">___</text><text x="49.098" y="1.67" class="f">\</text><text x="51.102" y="1.67" class="f">|\</text><text x="56.112" y="1.67" class="f">___</text><text x="60.12" y="1.67" class="f">\</text><text x="69.138" y="1.67" class="f">|\</text><text x="74.148" y="1.67" class="f">____\|\</text><text x="83.166" y="1.67" class="f">\</text><text x="89.178" y="1.67" class="f">|\</text><text x="93.186" y="1.67" class="f">\</text><text x="119.238" y="1.67" class="d">│</text></symbol><symbol id="5"><text y="1.67" class="d">│</text><text x="21.042" y="1.67" class="g">\</text><text x="23.046" y="1.67" class="g">\</text><text x="26.052" y="1.67" class="g">\___|\</text><text x="33.066" y="1.67" class="g">\</text><text x="37.074" y="1.67" class="g">__/|\</text><text x="43.086" y="1.67" class="g">\</text><text x="47.094" y="1.67" class="g">__/|\</text><text x="53.106" y="1.67" class="g">\</text><text x="56.112" y="1.67" class="g">\_|\</text><text x="61.122" y="1.67" class="g">\</text><text x="69.138" y="1.67" class="g">\</text><text x="71.142" y="1.67" class="g">\</text><text x="74.148" y="1.67" class="g">\___|\</text><text x="81.162" y="1.67" class="g">\</text><text x="84.168" y="1.67" class="g">\</text><text x="89.178" y="1.67" class="g">\</text><text x="91.182" y="1.67" class="g">\</text><text x="94.188" y="1.67" class="g">\</text><text x="119.238" y="1.67" class="d">│</text></symbol><symbol id="6"><text y="1.67" class="d">│</text><text x="22.044" y="1.67" class="h">\</text><text x="24.048" y="1.67" class="h">\_____</text><text x="32.064" y="1.67" class="h">\</text><text x="34.068" y="1.67" class="h">\</text><text x="37.074" y="1.67" class="h">\_|/_\</text><text x="44.088" y="1.67" class="h">\</text><text x="47.094" y="1.67" class="h">\_|/_\</text><text x="54.108" y="1.67" class="h">\</text><text x="57.114" y="1.67" class="h">\</text><text x="59.118" y="1.67" class="h">\\</text><text x="62.124" y="1.67" class="h">\</text><text x="70.14" y="1.67" class="h">\</text><text x="72.144" y="1.67" class="h">\</text><text x="75.15" y="1.67" class="h">\</text><text x="80.16" y="1.67" class="h">\</text><text x="82.164" y="1.67" class="h">\</text><text x="85.17" y="1.67" class="h">\</text><text x="90.18" y="1.67" class="h">\</text><text x="92.184" y="1.67" class="h">\</text><text x="95.19" y="1.67" class="h">\</text><text x="119.238" y="1.67" class="d">│</text></symbol><symbol id="7"><text y="1.67" class="d">│</text><text x="23.046" y="1.67" class="i">\|____|\</text><text x="33.066" y="1.67" class="i">\</text><text x="35.07" y="1.67" class="i">\</text><text x="38.076" y="1.67" class="i">\_|\</text><text x="43.086" y="1.67" class="i">\</text><text x="45.09" y="1.67" class="i">\</text><text x="48.096" y="1.67" class="i">\_|\</text><text x="53.106" y="1.67" class="i">\</text><text x="55.11" y="1.67" class="i">\</text><text x="58.116" y="1.67" class="i">\_\\</text><text x="63.126" y="1.67" class="i">\</text><text x="71.142" y="1.67" class="i">\</text><text x="73.146" y="1.67" class="i">\</text><text x="76.152" y="1.67" class="i">\____\</text><text x="83.166" y="1.67" class="i">\</text><text x="86.172" y="1.67" class="i">\____\</text><text x="93.186" y="1.67" class="i">\</text><text x="96.192" y="1.67" class="i">\</text><text x="119.238" y="1.67" class="d">│</text></symbol><symbol id="8"><text y="1.67" class="d">│</text><text x="25.05" y="1.67" class="j">____\_\</text><text x="34.068" y="1.67" class="j">\</text><text x="36.072" y="1.67" class="j">\_______\</text><text x="46.092" y="1.67" class="j">\_______\</text><text x="56.112" y="1.67" class="j">\_______\</text><text x="72.144" y="1.67" class="j">\</text><text x="74.148" y="1.67" class="j">\_______\</text><text x="84.168" y="1.67" class="j">\_______\</text><text x="94.188" y="1.67" class="j">\__\</text><text x="119.238" y="1.67" class="d">│</text></symbol><symbol id="9"><text y="1.67" class="d">│</text><text x="24.048" y="1.67" class="k">|\_________\|_______|\|_______|\|_______|</text><text x="73.146" y="1.67" class="k">\|_______|\|_______|\|__|</text><text x="119.238" y="1.67" class="d">│</text></symbol><symbol id="10"><text y="1.67" class="d">│</text><text x="24.048" y="1.67" class="e">\|_________|</text><text x="119.238" y="1.67" class="d">│</text></symbol><symbol id="11"><text y="1.67" class="d">│</text><text x="119.238" y="1.67" class="d">│</text></symbol><symbol id="12"><text y="1.67" class="d">╰───────────────────────────────────────</text><text x="41.082" y="1.67" class="d">Your</text><text x="46.092" y="1.67" class="d">intelligent</text><text x="58.116" y="1.67" class="d">project</text><text x="66.132" y="1.67" class="d">bootstrapper</text><text x="79.158" y="1.67" class="d">────────────────────────────────────────╯</text></symbol><symbol id="13"><text y="1.67" class="l">?</text><text x="2.004" y="1.67" class="m">What</text><text x="7.014" y="1.67" class="m">would</text><text x="13.026" y="1.67" class="m">you</text><text x="17.034" y="1.67" class="m">like</text><text x="22.044" y="1.67" class="m">to</text><text x="25.05" y="1.67" class="m">do?</text><text x="29.058" y="1.67" class="c">(Use</text><text x="34.068" y="1.67" class="c">arrow</text><text x="40.08" y="1.67" class="c">keys)</text></symbol><symbol id="14"><text x="1.002" y="1.67" class="c">»</text><text x="3.006" y="1.67" class="c">Create</text><text x="10.02" y="1.67" class="c">New</text><text x="14.028" y="1.67" class="c">Project</text></symbol><symbol id="15"><text x="3.006" y="1.67" class="c">Clone</text><text x="9.018" y="1.67" class="c">Repository</text></symbol><symbol id="16"><text x="3.006" y="1.67" class="c">Exit</text></symbol><symbol id="17"><text x="3.006" y="1.67" class="c">Create</text><text x="10.02" y="1.67" class="c">New</text><text x="14.028" y="1.67" class="c">Project</text></symbol><symbol id="18"><text x="1.002" y="1.67" class="c">»</text><text x="3.006" y="1.67" class="c">Clone</text><text x="9.018" y="1.67" class="c">Repository</text></symbol><symbol id="19"><text y="1.67" class="l">?</text><text x="2.004" y="1.67" class="m">What</text><text x="7.014" y="1.67" class="m">would</text><text x="13.026" y="1.67" class="m">you</text><text x="17.034" y="1.67" class="m">like</text><text x="22.044" y="1.67" class="m">to</text><text x="25.05" y="1.67" class="m">do?</text><text x="29.058" y="1.67" class="f">Create</text><text x="36.072" y="1.67" class="f">New</text><text x="40.08" y="1.67" class="f">Project</text></symbol><symbol id="20"><text y="1.67" class="l">?</text><text x="2.004" y="1.67" class="m">Select</text><text x="9.018" y="1.67" class="m">the</text><text x="13.026" y="1.67" class="m">project</text><text x="21.042" y="1.67" class="m">type:</text><text x="27.054" y="1.67" class="c">(Use</text><text x="32.064" y="1.67" class="c">arrow</text><text x="38.076" y="1.67" class="c">keys)</text></symbol><symbol id="21"><text x="1.002" y="1.67" class="c">»</text><text x="3.006" y="1.67" class="c">Data</text><text x="8.016" y="1.67" class="c">Science</text></symbol><symbol id="22"><text x="3.006" y="1.67" class="c">Machine</text><text x="11.022" y="1.67" class="c">Learning</text></symbol><symbol id="23"><text x="3.006" y="1.67" class="c">Web</text><text x="7.014" y="1.67" class="c">(Bun)</text></symbol><symbol id="24"><text x="3.006" y="1.67" class="c">FastAPI</text></symbol><symbol id="25"><text x="3.006" y="1.67" class="c">Bot</text><text x="7.014" y="1.67" class="c">/</text><text x="9.018" y="1.67" class="c">Automation</text></symbol><symbol id="26"><text x="3.006" y="1.67" class="c">Data</text><text x="8.016" y="1.67" class="c">Science</text></symbol><symbol id="27"><text x="1.002" y="1.67" class="c">»</text><text x="3.006" y="1.67" class="c">Machine</text><text x="11.022" y="1.67" class="c">Learning</text></symbol><symbol id="28"><text x="1.002" y="1.67" class="c">»</text><text x="3.006" y="1.67" class="c">Web</text><text x="7.014" y="1.67" class="c">(Bun)</text></symbol><symbol id="29"><text x="1.002" y="1.67" class="c">»</text><text x="3.006" y="1.67" class="c">FastAPI</text></symbol><symbol id="30"><text y="1.67" class="l">?</text><text x="2.004" y="1.67" class="m">Select</text><text x="9.018" y="1.67" class="m">the</text><text x="13.026" y="1.67" class="m">project</text><text x="21.042" y="1.67" class="m">type:</text><text x="27.054" y="1.67" class="f">Data</text><text x="32.064" y="1.67" class="f">Science</text></symbol><symbol id="31"><text y="1.67" class="l">?</text><text x="2.004" y="1.67" class="m">Enter</text><text x="8.016" y="1.67" class="m">project</text><text x="16.032" y="1.67" class="m">project</text><text x="24.048" y="1.67" class="m">name</text><text x="29.058" y="1.67" class="m">(folder</text><text x="37.074" y="1.67" class="m">will</text><text x="42.084" y="1.67" class="m">be</text><text x="45.09" y="1.67" class="m">created):</text></symbol><symbol id="32"><text y="1.67" class="l">?</text><text x="2.004" y="1.67" class="m">Enter</text><text x="8.016" y="1.67" class="m">project</text><text x="16.032" y="1.67" class="m">project</text><text x="24.048" y="1.67" class="m">name</text><text x="29.058" y="1.67" class="m">(folder</text><text x="37.074" y="1.67" class="m">will</text><text x="42.084" y="1.67" class="m">be</text><text x="45.09" y="1.67" class="m">created):</text><text x="55.11" y="1.67" class="f">test_data</text></symbol><symbol id="33"><text y="1.67" class="h">Project</text><text x="8.016" y="1.67" class="h">structure</text><text x="18.036" y="1.67" class="h">created</text><text x="26.052" y="1.67" class="h">successfully</text><text x="39.078" y="1.67" class="h">at</text><text x="42.084" y="1.67" class="h">/mnt/c/dev_project/01_active_projects/seed_cli/test_data</text></symbol><symbol id="a"><path fill="transparent" d="M0 0h120v29H0z"/></symbol><symbol id="b"><path fill="#6f7683" d="M0 0h1.102v2.171H0z"/></symbol></defs><path class="a" d="M0 0h120v62.959H0z"/><g style="animation-duration:12.943549s;animation-iteration-count:infinite;animation-name:p;animation-timing-function:steps(1,end)"><svg width="5400"><svg><use xlink:href="#a"/><use xlink:href="#b" x="41.996"/><text y="1.67" class="c">$</text><path fill="#b9c0cb" d="M2.004 0h40v2.171h-40z"/><text x="2.004" y="1.67" style="white-space:pre" fill="#282d35">mamba run -n seed_cli python src/main.py</text></svg><svg x="120"><use xlink:href="#a"/><use xlink:href="#b" x="-.004" y="2.146"/><use xlink:href="#1"/></svg><svg x="240"><use xlink:href="#a"/><use xlink:href="#b" x="17.996" y="13.001"/><use xlink:href="#1"/><use xlink:href="#2" y="2.171"/><use xlink:href="#3" y="4.342"/><use xlink:href="#4" y="6.513"/><use xlink:href="#5" y="8.684"/><use xlink:href="#6" y="10.855"/><text y="14.696" class="d">│</text></svg><svg x="360"><use xlink:href="#a"/><use xlink:href="#b" x="108.996" y="23.856"/><use xlink:href="#1"/><use xlink:href="#2" y="2.171"/><use xlink:href="#3" y="4.342"/><use xlink:href="#4" y="6.513"/><use xlink:href="#5" y="8.684"/><use xlink:href="#6" y="10.855"/><use xlink:href="#7" y="13.026"/><use xlink:href="#8" y="15.197"/><use xlink:href="#9" y="17.368"/><use xlink:href="#10" y="19.539"/><use xlink:href="#11" y="21.71"/><text y="25.551" class="d">╰───────────────────────────────────────</text><text x="41.082" y="25.551" class="d">Your</text><text x="46.092" y="25.551" class="d">intelligent</text><text x="58.116" y="25.551" class="d">project</text><text x="66.132" y="25.551" class="d">bootstrapper</text><text x="79.158" y="25.551" class="d">──────────────────────────────</text></svg><svg x="480"><use xlink:href="#a"/><use xlink:href="#b" x="-.004" y="26.027"/><use xlink:href="#1"/><use xlink:href="#2" y="2.171"/><use xlink:href="#3" y="4.342"/><use xlink:href="#4" y="6.513"/><use xlink:href="#5" y="8.684"/><use xlink:href="#6" y="10.855"/><use xlink:href="#7" y="13.026"/><use xlink:href="#8" y="15.197"/><use xlink:href="#9" y="17.368"/><use xlink:href="#10" y="19.539"/><use xlink:href="#11" y="21.71"/><use xlink:href="#12" y="23.881"/></svg><svg x="600"><use xlink:href="#a"/><use xlink:href="#b" x="-.004" y="30.369"/><use xlink:href="#1"/><use xlink:href="#2" y="2.171"/><use xlink:href="#3" y="4.342"/><use xlink:href="#4" y="6.513"/><use xlink:href="#5" y="8.684"/><use xlink:href="#6" y="10.855"/><use xlink:href="#7" y="13.026"/><use xlink:href="#8" y="15.197"/><use xlink:href="#9" y="17.368"/><use xlink:href="#10" y="19.539"/><use xlink:href="#11" y="21.71"/><use xlink:href="#12" y="23.881"/></svg><svg x="720"><use xlink:href="#a"/><use xlink:href="#b" x="-.004" y="30.369"/><use xlink:href="#1"/><use xlink:href="#2" y="2.171"/><use xlink:href="#3" y="4.342"/><use xlink:href="#4" y="6.513"/><use xlink:href="#5" y="8.684"/><use xlink:href="#6" y="10.855"/><use xlink:href="#7" y="13.026"/><use xlink:href="#8" y="15.197"/><use xlink:href="#9" y="17.368"/><use xlink:href="#10" y="19.539"/><use xlink:href="#11" y="21.71"/><use xlink:href="#12" y="23.881"/></svg><svg x="840"><use xlink:href="#a"/><use xlink:href="#b" x="-.004" y="30.369"/><use xlink:href="#1"/><use xlink:href="#2" y="2.171"/><use xlink:href="#3" y="4.342"/><use xlink:href="#4" y="6.513"/><use xlink:href="#5" y="8.684"/><use xlink:href="#6" y="10.855"/><use xlink:href="#7" y="13.026"/><use xlink:href="#8" y="15.197"/><use xlink:href="#9" y="17.368"/><use xlink:href="#10" y="19.539"/><use xlink:href="#11" y="21.71"/><use xlink:href="#12" y="23.881"/></svg><svg x="960"><use xlink:href="#a"/><use xlink:href="#1"/><use xlink:href="#2" y="2.171"/><use xlink:href="#3" y="4.342"/><use xlink:href="#4" y="6.513"/><use xlink:href="#5" y="8.684"/><use xlink:href="#6" y="10.855"/><use xlink:href="#7" y="13.026"/><use xlink:href="#8" y="15.197"/><use xlink:href="#9" y="17.368"/><use xlink:href="#10" y="19.539"/><use xlink:href="#11" y="21.71"/><use xlink:href="#12" y="23.881"/><use xlink:href="#13" y="30.394"/><use xlink:href="#14" y="32.565"/><use xlink:href="#15" y="34.736"/><use xlink:href="#16" y="36.907"/></svg><svg x="1080"><use xlink:href="#a"/><use xlink:href="#1"/><use xlink:href="#2" y="2.171"/><use xlink:href="#3" y="4.342"/><use xlink:href="#4" y="6.513"/><use xlink:href="#5" y="8.684"/><use xlink:href="#6" y="10.855"/><use xlink:href="#7" y="13.026"/><use xlink:href="#8" y="15.197"/><use xlink:href="#9" y="17.368"/><use xlink:href="#10" y="19.539"/><use xlink:href="#11" y="21.71"/><use xlink:href="#12" y="23.881"/><use xlink:href="#13" y="30.394"/><use xlink:href="#14" y="32.565"/><use xlink:href="#15" y="34.736"/><use xlink:href="#16" y="36.907"/></svg><svg x="1200"><use xlink:href="#a"/><use xlink:href="#1"/><use xlink:href="#2" y="2.171"/><use xlink:href="#3" y="4.342"/><use xlink:href="#4" y="6.513"/><use xlink:href="#5" y="8.684"/><use xlink:href="#6" y="10.855"/><use xlink:href="#7" y="13.026"/><use xlink:href="#8" y="15.197"/><use xlink:href="#9" y="17.368"/><use xlink:href="#10" y="19.539"/><use xlink:href="#11" y="21.71"/><use xlink:href="#12" y="23.881"/><use xlink:href="#13" y="30.394"/><use xlink:href="#17" y="32.565"/><use xlink:href="#18" y="34.736"/><use xlink:href="#16" y="36.907"/></svg><svg x="1320"><use xlink:href="#a"/><use xlink:href="#1"/><use xlink:href="#2" y="2.171"/><use xlink:href="#3" y="4.342"/><use xlink:href="#4" y="6.513"/><use xlink:href="#5" y="8.684"/><use xlink:href="#6" y="10.855"/><use xlink:href="#7" y="13.026"/><use xlink:href="#8" y="15.197"/><use xlink:href="#9" y="17.368"/><use xlink:href="#10" y="19.539"/><use xlink:href="#11" y="21.71"/><use xlink:href="#12" y="23.881"/><use xlink:href="#13" y="30.394"/><use xlink:href="#17" y="32.565"/><use xlink:href="#15" y="34.736"/><text x="1.002" y="38.577" class="c">»</text><text x="3.006" y="38.577" class="c">Exit</text></svg><svg x="1440"><use xlink:href="#a"/><use xlink:href="#1"/><use xlink:href="#2" y="2.171"/><use xlink:href="#3" y="4.342"/><use xlink:href="#4" y="6.513"/><use xlink:href="#5" y="8.684"/><use xlink:href="#6" y="10.855"/><use xlink:href="#7" y="13.026"/><use xlink:href="#8" y="15.197"/><use xlink:href="#9" y="17.368"/><use xlink:href="#10" y="19.539"/><use xlink:href="#11" y="21.71"/><use xlink:href="#12" y="23.881"/><use xlink:href="#13" y="30.394"/><use xlink:href="#17" y="32.565"/><use xlink:href="#18" y="34.736"/><use xlink:href="#16" y="36.907"/></svg><svg x="1560"><use xlink:href="#a"/><use xlink:href="#1"/><use xlink:href="#2" y="2.171"/><use xlink:href="#3" y="4.342"/><use xlink:href="#4" y="6.513"/><use xlink:href="#5" y="8.684"/><use xlink:href="#6" y="10.855"/><use xlink:href="#7" y="13.026"/><use xlink:href="#8" y="15.197"/><use xlink:href="#9" y="17.368"/><use xlink:href="#10" y="19.539"/><use xlink:href="#11" y="21.71"/><use xlink:href="#12" y="23.881"/><use xlink:href="#13" y="30.394"/><use xlink:href="#14" y="32.565"/><use xlink:href="#15" y="34.736"/><use xlink:href="#16" y="36.907"/></svg><svg x="1680"><use xlink:href="#a"/><use xlink:href="#b" x="-.004" y="32.54"/><use xlink:href="#1"/><use xlink:href="#2" y="2.171"/><use xlink:href="#3" y="4.342"/><use xlink:href="#4" y="6.513"/><use xlink:href="#5" y="8.684"/><use xlink:href="#6" y="10.855"/><use xlink:href="#7" y="13.026"/><use xlink:href="#8" y="15.197"/><use xlink:href="#9" y="17.368"/><use xlink:href="#10" y="19.539"/><use xlink:href="#11" y="21.71"/><use xlink:href="#12" y="23.881"/><use xlink:href="#19" y="30.394"/></svg><svg x="1800"><use xlink:href="#a"/><use xlink:href="#b" x="-.004" y="32.54"/><use xlink:href="#1"/><use xlink:href="#2" y="2.171"/><use xlink:href="#3" y="4.342"/><use xlink:href="#4" y="6.513"/><use xlink:href="#5" y="8.684"/><use xlink:href="#6" y="10.855"/><use xlink:href="#7" y="13.026"/><use xlink:href="#8" y="15.197"/><use xlink:href="#9" y="17.368"/><use xlink:href="#10" y="19.539"/><use xlink:href="#11" y="21.71"/><use xlink:href="#12" y="23.881"/><use xlink:href="#19" y="30.394"/></svg><svg x="1920"><use xlink:href="#a"/><use xlink:href="#1"/><use xlink:href="#2" y="2.171"/><use xlink:href="#3" y="4.342"/><use xlink:href="#4" y="6.513"/><use xlink:href="#5" y="8.684"/><use xlink:href="#6" y="10.855"/><use xlink:href="#7" y="13.026"/><use xlink:href="#8" y="15.197"/><use xlink:href="#9" y="17.368"/><use xlink:href="#10" y="19.539"/><use xlink:href="#11" y="21.71"/><use xlink:href="#12" y="23.881"/><use xlink:href="#19" y="30.394"/><use xlink:href="#20" y="32.565"/><use xlink:href="#21" y="34.736"/><use xlink:href="#22" y="36.907"/><use xlink:href="#23" y="39.078"/><use xlink:href="#24" y="41.249"/><use xlink:href="#25" y="43.42"/></svg><svg x="2040"><use xlink:href="#a"/><use xlink:href="#1"/><use xlink:href="#2" y="2.171"/><use xlink:href="#3" y="4.342"/><use xlink:href="#4" y="6.513"/><use xlink:href="#5" y="8.684"/><use xlink:href="#6" y="10.855"/><use xlink:href="#7" y="13.026"/><use xlink:href="#8" y="15.197"/><use xlink:href="#9" y="17.368"/><use xlink:href="#10" y="19.539"/><use xlink:href="#11" y="21.71"/><use xlink:href="#12" y="23.881"/><use xlink:href="#19" y="30.394"/><use xlink:href="#20" y="32.565"/><use xlink:href="#21" y="34.736"/><use xlink:href="#22" y="36.907"/><use xlink:href="#23" y="39.078"/><use xlink:href="#24" y="41.249"/><use xlink:href="#25" y="43.42"/></svg><svg x="2160"><use xlink:href="#a"/><use xlink:href="#1"/><use xlink:href="#2" y="2.171"/><use xlink:href="#3" y="4.342"/><use xlink:href="#4" y="6.513"/><use xlink:href="#5" y="8.684"/><use xlink:href="#6" y="10.855"/><use xlink:href="#7" y="13.026"/><use xlink:href="#8" y="15.197"/><use xlink:href="#9" y="17.368"/><use xlink:href="#10" y="19.539"/><use xlink:href="#11" y="21.71"/><use xlink:href="#12" y="23.881"/><use xlink:href="#19" y="30.394"/><use xlink:href="#20" y="32.565"/><use xlink:href="#26" y="34.736"/><use xlink:href="#27" y="36.907"/><use xlink:href="#23" y="39.078"/><use xlink:href="#24" y="41.249"/><use xlink:href="#25" y="43.42"/></svg><svg x="2280"><use xlink:href="#a"/><use xlink:href="#1"/><use xlink:href="#2" y="2.171"/><use xlink:href="#3" y="4.342"/><use xlink:href="#4" y="6.513"/><use xlink:href="#5" y="8.684"/><use xlink:href="#6" y="10.855"/><use xlink:href="#7" y="13.026"/><use xlink:href="#8" y="15.197"/><use xlink:href="#9" y="17.368"/><use xlink:href="#10" y="19.539"/><use xlink:href="#11" y="21.71"/><use xlink:href="#12" y="23.881"/><use xlink:href="#19" y="30.394"/><use xlink:href="#20" y="32.565"/><use xlink:href="#26" y="34.736"/><use xlink:href="#22" y="36.907"/><use xlink:href="#28" y="39.078"/><use xlink:href="#24" y="41.249"/><use xlink:href="#25" y="43.42"/></svg><svg x="2400"><use xlink:href="#a"/><use xlink:href="#1"/><use xlink:href="#2" y="2.171"/><use xlink:href="#3" y="4.342"/><use xlink:href="#4" y="6.513"/><use xlink:href="#5" y="8.684"/><use xlink:href="#6" y="10.855"/><use xlink:href="#7" y="13.026"/><use xlink:href="#8" y="15.197"/><use xlink:href="#9" y="17.368"/><use xlink:href="#10" y="19.539"/><use xlink:href="#11" y="21.71"/><use xlink:href="#12" y="23.881"/><use xlink:href="#19" y="30.394"/><use xlink:href="#20" y="32.565"/><use xlink:href="#26" y="34.736"/><use xlink:href="#22" y="36.907"/><use xlink:href="#23" y="39.078"/><use xlink:href="#29" y="41.249"/><use xlink:href="#25" y="43.42"/></svg><svg x="2520"><use xlink:href="#a"/><use xlink:href="#1"/><use xlink:href="#2" y="2.171"/><use xlink:href="#3" y="4.342"/><use xlink:href="#4" y="6.513"/><use xlink:href="#5" y="8.684"/><use xlink:href="#6" y="10.855"/><use xlink:href="#7" y="13.026"/><use xlink:href="#8" y="15.197"/><use xlink:href="#9" y="17.368"/><use xlink:href="#10" y="19.539"/><use xlink:href="#11" y="21.71"/><use xlink:href="#12" y="23.881"/><use xlink:href="#19" y="30.394"/><use xlink:href="#20" y="32.565"/><use xlink:href="#26" y="34.736"/><use xlink:href="#22" y="36.907"/><use xlink:href="#23" y="39.078"/><use xlink:href="#24" y="41.249"/><text x="1.002" y="45.09" class="c">»</text><text x="3.006" y="45.09" class="c">Bot</text><text x="7.014" y="45.09" class="c">/</text><text x="9.018" y="45.09" class="c">Automation</text></svg><svg x="2640"><use xlink:href="#a"/><use xlink:href="#1"/><use xlink:href="#2" y="2.171"/><use xlink:href="#3" y="4.342"/><use xlink:href="#4" y="6.513"/><use xlink:href="#5" y="8.684"/><use xlink:href="#6" y="10.855"/><use xlink:href="#7" y="13.026"/><use xlink:href="#8" y="15.197"/><use xlink:href="#9" y="17.368"/><use xlink:href="#10" y="19.539"/><use xlink:href="#11" y="21.71"/><use xlink:href="#12" y="23.881"/><use xlink:href="#19" y="30.394"/><use xlink:href="#20" y="32.565"/><use xlink:href="#26" y="34.736"/><use xlink:href="#22" y="36.907"/><use xlink:href="#23" y="39.078"/><use xlink:href="#29" y="41.249"/><use xlink:href="#25" y="43.42"/></svg><svg x="2760"><use xlink:href="#a"/><use xlink:href="#1"/><use xlink:href="#2" y="2.171"/><use xlink:href="#3" y="4.342"/><use xlink:href="#4" y="6.513"/><use xlink:href="#5" y="8.684"/><use xlink:href="#6" y="10.855"/><use xlink:href="#7" y="13.026"/><use xlink:href="#8" y="15.197"/><use xlink:href="#9" y="17.368"/><use xlink:href="#10" y="19.539"/><use xlink:href="#11" y="21.71"/><use xlink:href="#12" y="23.881"/><use xlink:href="#19" y="30.394"/><use xlink:href="#20" y="32.565"/><use xlink:href="#26" y="34.736"/><use xlink:href="#22" y="36.907"/><use xlink:href="#28" y="39.078"/><use xlink:href="#24" y="41.249"/><use xlink:href="#25" y="43.42"/></svg><svg x="2880"><use xlink:href="#a"/><use xlink:href="#1"/><use xlink:href="#2" y="2.171"/><use xlink:href="#3" y="4.342"/><use xlink:href="#4" y="6.513"/><use xlink:href="#5" y="8.684"/><use xlink:href="#6" y="10.855"/><use xlink:href="#7" y="13.026"/><use xlink:href="#8" y="15.197"/><use xlink:href="#9" y="17.368"/><use xlink:href="#10" y="19.539"/><use xlink:href="#11" y="21.71"/><use xlink:href="#12" y="23.881"/><use xlink:href="#19" y="30.394"/><use xlink:href="#20" y="32.565"/><use xlink:href="#26" y="34.736"/><use xlink:href="#27" y="36.907"/><use xlink:href="#23" y="39.078"/><use xlink:href="#24" y="41.249"/><use xlink:href="#25" y="43.42"/></svg><svg x="3000"><use xlink:href="#a"/><use xlink:href="#1"/><use xlink:href="#2" y="2.171"/><use xlink:href="#3" y="4.342"/><use xlink:href="#4" y="6.513"/><use xlink:href="#5" y="8.684"/><use xlink:href="#6" y="10.855"/><use xlink:href="#7" y="13.026"/><use xlink:href="#8" y="15.197"/><use xlink:href="#9" y="17.368"/><use xlink:href="#10" y="19.539"/><use xlink:href="#11" y="21.71"/><use xlink:href="#12" y="23.881"/><use xlink:href="#19" y="30.394"/><use xlink:href="#20" y="32.565"/><use xlink:href="#21" y="34.736"/><use xlink:href="#22" y="36.907"/><use xlink:href="#23" y="39.078"/><use xlink:href="#24" y="41.249"/><use xlink:href="#25" y="43.42"/></svg><svg x="3120"><use xlink:href="#a"/><use xlink:href="#b" x="-.004" y="34.711"/><use xlink:href="#1"/><use xlink:href="#2" y="2.171"/><use xlink:href="#3" y="4.342"/><use xlink:href="#4" y="6.513"/><use xlink:href="#5" y="8.684"/><use xlink:href="#6" y="10.855"/><use xlink:href="#7" y="13.026"/><use xlink:href="#8" y="15.197"/><use xlink:href="#9" y="17.368"/><use xlink:href="#10" y="19.539"/><use xlink:href="#11" y="21.71"/><use xlink:href="#12" y="23.881"/><use xlink:href="#19" y="30.394"/><use xlink:href="#30" y="32.565"/></svg><svg x="3240"><use xlink:href="#a"/><use xlink:href="#b" x="-.004" y="34.711"/><use xlink:href="#1"/><use xlink:href="#2" y="2.171"/><use xlink:href="#3" y="4.342"/><use xlink:href="#4" y="6.513"/><use xlink:href="#5" y="8.684"/><use xlink:href="#6" y="10.855"/><use xlink:href="#7" y="13.026"/><use xlink:href="#8" y="15.197"/><use xlink:href="#9" y="17.368"/><use xlink:href="#10" y="19.539"/><use xlink:href="#11" y="21.71"/><use xlink:href="#12" y="23.881"/><use xlink:href="#19" y="30.394"/><use xlink:href="#30" y="32.565"/></svg><svg x="3360"><use xlink:href="#a"/><use xlink:href="#b" x="54.996" y="34.711"/><use xlink:href="#1"/><use xlink:href="#2" y="2.171"/><use xlink:href="#3" y="4.342"/><use xlink:href="#4" y="6.513"/><use xlink:href="#5" y="8.684"/><use xlink:href="#6" y="10.855"/><use xlink:href="#7" y="13.026"/><use xlink:href="#8" y="15.197"/><use xlink:href="#9" y="17.368"/><use xlink:href="#10" y="19.539"/><use xlink:href="#11" y="21.71"/><use xlink:href="#12" y="23.881"/><use xlink:href="#19" y="30.394"/><use xlink:href="#30" y="32.565"/><use xlink:href="#31" y="34.736"/></svg><svg x="3480"><use xlink:href="#a"/><use xlink:href="#b" x="54.996" y="34.711"/><use xlink:href="#1"/><use xlink:href="#2" y="2.171"/><use xlink:href="#3" y="4.342"/><use xlink:href="#4" y="6.513"/><use xlink:href="#5" y="8.684"/><use xlink:href="#6" y="10.855"/><use xlink:href="#7" y="13.026"/><use xlink:href="#8" y="15.197"/><use xlink:href="#9" y="17.368"/><use xlink:href="#10" y="19.539"/><use xlink:href="#11" y="21.71"/><use xlink:href="#12" y="23.881"/><use xlink:href="#19" y="30.394"/><use xlink:href="#30" y="32.565"/><use xlink:href="#31" y="34.736"/></svg><svg x="3600"><use xlink:href="#a"/><use xlink:href="#b" x="55.996" y="34.711"/><use xlink:href="#1"/><use xlink:href="#2" y="2.171"/><use xlink:href="#3" y="4.342"/><use xlink:href="#4" y="6.513"/><use xlink:href="#5" y="8.684"/><use xlink:href="#6" y="10.855"/><use xlink:href="#7" y="13.026"/><use xlink:href="#8" y="15.197"/><use xlink:href="#9" y="17.368"/><use xlink:href="#10" y="19.539"/><use xlink:href="#11" y="21.71"/><use xlink:href="#12" y="23.881"/><use xlink:href="#19" y="30.394"/><use xlink:href="#30" y="32.565"/><text y="36.406" class="l">?</text><text x="2.004" y="36.406" class="m">Enter</text><text x="8.016" y="36.406" class="m">project</text><text x="16.032" y="36.406" class="m">project</text><text x="24.048" y="36.406" class="m">name</text><text x="29.058" y="36.406" class="m">(folder</text><text x="37.074" y="36.406" class="m">will</text><text x="42.084" y="36.406" class="m">be</text><text x="45.09" y="36.406" class="m">created):</text><text x="55.11" y="36.406" class="f">t</text></svg><svg x="3720"><use xlink:href="#a"/><use xlink:href="#b" x="56.996" y="34.711"/><use xlink:href="#1"/><use xlink:href="#2" y="2.171"/><use xlink:href="#3" y="4.342"/><use xlink:href="#4" y="6.513"/><use xlink:href="#5" y="8.684"/><use xlink:href="#6" y="10.855"/><use xlink:href="#7" y="13.026"/><use xlink:href="#8" y="15.197"/><use xlink:href="#9" y="17.368"/><use xlink:href="#10" y="19.539"/><use xlink:href="#11" y="21.71"/><use xlink:href="#12" y="23.881"/><use xlink:href="#19" y="30.394"/><use xlink:href="#30" y="32.565"/><text y="36.406" class="l">?</text><text x="2.004" y="36.406" class="m">Enter</text><text x="8.016" y="36.406" class="m">project</text><text x="16.032" y="36.406" class="m">project</text><text x="24.048" y="36.406" class="m">name</text><text x="29.058" y="36.406" class="m">(folder</text><text x="37.074" y="36.406" class="m">will</text><text x="42.084" y="36.406" class="m">be</text><text x="45.09" y="36.406" class="m">created):</text><text x="55.11" y="36.406" class="f">te</text></svg><svg x="3840"><use xlink:href="#a"/><use xlink:href="#b" x="57.996" y="34.711"/><use xlink:href="#1"/><use xlink:href="#2" y="2.171"/><use xlink:href="#3" y="4.342"/><use xlink:href="#4" y="6.513"/><use xlink:href="#5" y="8.684"/><use xlink:href="#6" y="10.855"/><use xlink:href="#7" y="13.026"/><use xlink:href="#8" y="15.197"/><use xlink:href="#9" y="17.368"/><use xlink:href="#10" y="19.539"/><use xlink:href="#11" y="21.71"/><use xlink:href="#12" y="23.881"/><use xlink:href="#19" y="30.394"/><use xlink:href="#30" y="32.565"/><text y="36.406" class="l">?</text><text x="2.004" y="36.406" class="m">Enter</text><text x="8.016" y="36.406" class="m">project</text><text x="16.032" y="36.406" class="m">project</text><text x="24.048" y="36.406" class="m">name</text><text x="29.058" y="36.406" class="m">(folder</text><text x="37.074" y="36.406" class="m">will</text><text x="42.084" y="36.406" class="m">be</text><text x="45.09" y="36.406" class="m">created):</text><text x="55.11" y="36.406" class="f">tes</text></svg><svg x="3960"><use xlink:href="#a"/><use xlink:href="#b" x="58.996" y="34.711"/><use xlink:href="#1"/><use xlink:href="#2" y="2.171"/><use xlink:href="#3" y="4.342"/><use xlink:href="#4" y="6.513"/><use xlink:href="#5" y="8.684"/><use xlink:href="#6" y="10.855"/><use xlink:href="#7" y="13.026"/><use xlink:href="#8" y="15.197"/><use xlink:href="#9" y="17.368"/><use xlink:href="#10" y="19.539"/><use xlink:href="#11" y="21.71"/><use xlink:href="#12" y="23.881"/><use xlink:href="#19" y="30.394"/><use xlink:href="#30" y="32.565"/><text y="36.406" class="l">?</text><text x="2.004" y="36.406" class="m">Enter</text><text x="8.016" y="36.406" class="m">project</text><text x="16.032" y="36.406" class="m">project</text><text x="24.048" y="36.406" class="m">name</text><text x="29.058" y="36.406" class="m">(folder</text><text x="37.074" y="36.406" class="m">will</text><text x="42.084" y="36.406" class="m">be</text><text x="45.09" y="36.406" class="m">created):</text><text x="55.11" y="36.406" class="f">test</text></svg><svg x="4080"><use xlink:href="#a"/><use xlink:href="#b" x="59.996" y="34.711"/><use xlink:href="#1"/><use xlink:href="#2" y="2.171"/><use xlink:href="#3" y="4.342"/><use xlink:href="#4" y="6.513"/><use xlink:href="#5" y="8.684"/><use xlink:href="#6" y="10.855"/><use xlink:href="#7" y="13.026"/><use xlink:href="#8" y="15.197"/><use xlink:href="#9" y="17.368"/><use xlink:href="#10" y="19.539"/><use xlink:href="#11" y="21.71"/><use xlink:href="#12" y="23.881"/><use xlink:href="#19" y="30.394"/><use xlink:href="#30" y="32.565"/><text y="36.406" class="l">?</text><text x="2.004" y="36.406" class="m">Enter</text><text x="8.016" y="36.406" class="m">project</text><text x="16.032" y="36.406" class="m">project</text><text x="24.048" y="36.406" class="m">name</text><text x="29.058" y="36.406" class="m">(folder</text><text x="37.074" y="36.406" class="m">will</text><text x="42.084" y="36.406" class="m">be</text><text x="45.09" y="36.406" class="m">created):</text><text x="55.11" y="36.406" class="f">test_</text></svg><svg x="4200"><use xlink:href="#a"/><use xlink:href="#b" x="60.996" y="34.711"/><use xlink:href="#1"/><use xlink:href="#2" y="2.171"/><use xlink:href="#3" y="4.342"/><use xlink:href="#4" y="6.513"/><use xlink:href="#5" y="8.684"/><use xlink:href="#6" y="10.855"/><use xlink:href="#7" y="13.026"/><use xlink:href="#8" y="15.197"/><use xlink:href="#9" y="17.368"/><use xlink:href="#10" y="19.539"/><use xlink:href="#11" y="21.71"/><use xlink:href="#12" y="23.881"/><use xlink:href="#19" y="30.394"/><use xlink:href="#30" y="32.565"/><text y="36.406" class="l">?</text><text x="2.004" y="36.406" class="m">Enter</text><text x="8.016" y="36.406" class="m">project</text><text x="16.032" y="36.406" class="m">project</text><text x="24.048" y="36.406" class="m">name</text><text x="29.058" y="36.406" class="m">(folder</text><text x="37.074" y="36.406" class="m">will</text><text x="42.084" y="36.406" class="m">be</text><text x="45.09" y="36.406" class="m">created):</text><text x="55.11" y="36.406" class="f">test_d</text></svg><svg x="4320"><use xlink:href="#a"/><use xlink:href="#b" x="61.996" y="34.711"/><use xlink:href="#1"/><use xlink:href="#2" y="2.171"/><use xlink:href="#3" y="4.342"/><use xlink:href="#4" y="6.513"/><use xlink:href="#5" y="8.684"/><use xlink:href="#6" y="10.855"/><use xlink:href="#7" y="13.026"/><use xlink:href="#8" y="15.197"/><use xlink:href="#9" y="17.368"/><use xlink:href="#10" y="19.539"/><use xlink:href="#11" y="21.71"/><use xlink:href="#12" y="23.881"/><use xlink:href="#19" y="30.394"/><use xlink:href="#30" y="32.565"/><text y="36.406" class="l">?</text><text x="2.004" y="36.406" class="m">Enter</text><text x="8.016" y="36.406" class="m">project</text><text x="16.032" y="36.406" class="m">project</text><text x="24.048" y="36.406" class="m">name</text><text x="29.058" y="36.406" class="m">(folder</text><text x="37.074" y="36.406" class="m">will</text><text x="42.084" y="36.406" class="m">be</text><text x="45.09" y="36.406" class="m">created):</text><text x="55.11" y="36.406" class="f">test_da</text></svg><svg x="4440"><use xlink:href="#a"/><use xlink:href="#b" x="62.996" y="34.711"/><use xlink:href="#1"/><use xlink:href="#2" y="2.171"/><use xlink:href="#3" y="4.342"/><use xlink:href="#4" y="6.513"/><use xlink:href="#5" y="8.684"/><use xlink:href="#6" y="10.855"/><use xlink:href="#7" y="13.026"/><use xlink:href="#8" y="15.197"/><use xlink:href="#9" y="17.368"/><use xlink:href="#10" y="19.539"/><use xlink:href="#11" y="21.71"/><use xlink:href="#12" y="23.881"/><use xlink:href="#19" y="30.394"/><use xlink:href="#30" y="32.565"/><text y="36.406" class="l">?</text><text x="2.004" y="36.406" class="m">Enter</text><text x="8.016" y="36.406" class="m">project</text><text x="16.032" y="36.406" class="m">project</text><text x="24.048" y="36.406" class="m">name</text><text x="29.058" y="36.406" class="m">(folder</text><text x="37.074" y="36.406" class="m">will</text><text x="42.084" y="36.406" class="m">be</text><text x="45.09" y="36.406" class="m">created):</text><text x="55.11" y="36.406" class="f">test_dat</text></svg><svg x="4560"><use xlink:href="#a"/><use xlink:href="#b" x="63.996" y="34.711"/><use xlink:href="#1"/><use xlink:href="#2" y="2.171"/><use xlink:href="#3" y="4.342"/><use xlink:href="#4" y="6.513"/><use xlink:href="#5" y="8.684"/><use xlink:href="#6" y="10.855"/><use xlink:href="#7" y="13.026"/><use xlink:href="#8" y="15.197"/><use xlink:href="#9" y="17.368"/><use xlink:href="#10" y="19.539"/><use xlink:href="#11" y="21.71"/><use xlink:href="#12" y="23.881"/><use xlink:href="#19" y="30.394"/><use xlink:href="#30" y="32.565"/><use xlink:href="#32" y="34.736"/></svg><svg x="4680"><use xlink:href="#a"/><use xlink:href="#b" x="-.004" y="36.882"/><use xlink:href="#1"/><use xlink:href="#2" y="2.171"/><use xlink:href="#3" y="4.342"/><use xlink:href="#4" y="6.513"/><use xlink:href="#5" y="8.684"/><use xlink:href="#6" y="10.855"/><use xlink:href="#7" y="13.026"/><use xlink:href="#8" y="15.197"/><use xlink:href="#9" y="17.368"/><use xlink:href="#10" y="19.539"/><use xlink:href="#11" y="21.71"/><use xlink:href="#12" y="23.881"/><use xlink:href="#19" y="30.394"/><use xlink:href="#30" y="32.565"/><use xlink:href="#32" y="34.736"/></svg><svg x="4800"><use xlink:href="#a"/><use xlink:href="#1"/><use xlink:href="#2" y="2.171"/><use xlink:href="#3" y="4.342"/><use xlink:href="#4" y="6.513"/><use xlink:href="#5" y="8.684"/><use xlink:href="#6" y="10.855"/><use xlink:href="#7" y="13.026"/><use xlink:href="#8" y="15.197"/><use xlink:href="#9" y="17.368"/><use xlink:href="#10" y="19.539"/><use xlink:href="#11" y="21.71"/><use xlink:href="#12" y="23.881"/><use xlink:href="#19" y="30.394"/><use xlink:href="#30" y="32.565"/><use xlink:href="#32" y="34.736"/></svg><svg x="4920"><use xlink:href="#a"/><use xlink:href="#1"/><use xlink:href="#2" y="2.171"/><use xlink:href="#3" y="4.342"/><use xlink:href="#4" y="6.513"/><use xlink:href="#5" y="8.684"/><use xlink:href="#6" y="10.855"/><use xlink:href="#7" y="13.026"/><use xlink:href="#8" y="15.197"/><use xlink:href="#9" y="17.368"/><use xlink:href="#10" y="19.539"/><use xlink:href="#11" y="21.71"/><use xlink:href="#12" y="23.881"/><use xlink:href="#19" y="30.394"/><use xlink:href="#30" y="32.565"/><use xlink:href="#32" y="34.736"/><text y="38.577" class="d">⠋</text><text x="2.004" y="38.577" class="c">Creating</text><text x="11.022" y="38.577" class="c">project</text><text x="19.038" y="38.577" class="c">at</text><text x="22.044" y="38.577" class="c">/mnt/c/dev_project/01_active_projects/seed_cli/test_data...</text></svg><svg x="5040"><use xlink:href="#a"/><use xlink:href="#b" x="-.004" y="36.882"/><use xlink:href="#1"/><use xlink:href="#2" y="2.171"/><use xlink:href="#3" y="4.342"/><use xlink:href="#4" y="6.513"/><use xlink:href="#5" y="8.684"/><use xlink:href="#6" y="10.855"/><use xlink:href="#7" y="13.026"/><use xlink:href="#8" y="15.197"/><use xlink:href="#9" y="17.368"/><use xlink:href="#10" y="19.539"/><use xlink:href="#11" y="21.71"/><use xlink:href="#12" y="23.881"/><use xlink:href="#19" y="30.394"/><use xlink:href="#30" y="32.565"/><use xlink:href="#32" y="34.736"/></svg><svg x="5160"><use xlink:href="#a"/><use xlink:href="#b" x="-.004" y="39.053"/><use xlink:href="#1"/><use xlink:href="#2" y="2.171"/><use xlink:href="#3" y="4.342"/><use xlink:href="#4" y="6.513"/><use xlink:href="#5" y="8.684"/><use xlink:href="#6" y="10.855"/><use xlink:href="#7" y="13.026"/><use xlink:href="#8" y="15.197"/><use xlink:href="#9" y="17.368"/><use xlink:href="#10" y="19.539"/><use xlink:href="#11" y="21.71"/><use xlink:href="#12" y="23.881"/><use xlink:href="#19" y="30.394"/><use xlink:href="#30" y="32.565"/><use xlink:href="#32" y="34.736"/><use xlink:href="#33" y="36.907"/></svg><svg x="5280"><use xlink:href="#a"/><use xlink:href="#b" x="1.996" y="39.053"/><use xlink:href="#1"/><use xlink:href="#2" y="2.171"/><use xlink:href="#3" y="4.342"/><use xlink:href="#4" y="6.513"/><use xlink:href="#5" y="8.684"/><use xlink:href="#6" y="10.855"/><use xlink:href="#7" y="13.026"/><use xlink:href="#8" y="15.197"/><use xlink:href="#9" y="17.368"/><use xlink:href="#10" y="19.539"/><use xlink:href="#11" y="21.71"/><use xlink:href="#12" y="23.881"/><use xlink:href="#19" y="30.394"/><use xlink:href="#30" y="32.565"/><use xlink:href="#32" y="34.736"/><use xlink:href="#33" y="36.907"/><text y="40.748" class="c">$</text></svg></svg></g></g></svg></svg>